<svg xmlns="http://www.w3.org/2000/svg" width="32" height="32" version="1">
 <path d="M 10.699219,3.0033302 C 9.6953403,3.0266636 8.8676977,3.1608281 8.0722656,3.4291115 7.5755196,3.5966567 7.0387475,3.8429999 6.8007812,4.0130959 6.6261043,4.1379453 6.4824219,4.4237752 6.4824219,4.6439552 c 0,0.1157823 0.055718,0.3071731 0.1191406,0.4101563 0.026235,0.042607 0.1826937,0.2275609 0.3496094,0.4101563 0.1669228,0.1825959 0.3646858,0.4011166 0.4394531,0.4863281 1.3810986,1.5739336 1.5912798,3.0548643 1.665586,4.8906251 -0.094898,0.949723 -0.471093,1.894285 -1.232422,2.771484 -1.5990722,2.043502 -1.9268999,2.890371 -2.4292578,4.222657 -0.1983224,0.525966 -0.3070318,0.971976 -0.3710937,1.515624 -0.031428,0.264821 -0.029966,1.180802 0.00195,1.623047 0.099569,1.379095 0.3645379,2.631721 0.828125,3.888672 0.051633,0.139988 0.1284909,0.348866 0.1699219,0.462891 0.4204676,1.155953 1.3639519,2.729034 2.3007813,3.841797 0.2250823,0.267348 0.8602826,0.910094 1.1894531,1.203125 0.3947648,0.351425 0.8138712,0.574556 1.1640622,0.617187 l 0,-0.002 c 0.0789,0.0095 2.056541,0.01647 4.394532,0.01367 l 4.25,-0.0039 0.158203,-0.04687 C 23,29.999424 27.266952,22.356589 25.617185,18.034542 25,16.999424 24.046751,16.638755 24.0332,15.854855 c 1.42e-4,-0.308879 0.0076,-0.419011 0.04102,-0.541016 0.08917,-0.325455 0.492163,-0.623249 0.724609,-0.898437 0.05655,-0.06696 0.330639,-0.348931 0.609375,-0.628907 0.662981,-0.665926 0.876849,-0.938624 1.132813,-1.445312 0.206467,-0.408693 0.355618,-0.893999 0.425781,-1.38086 0.04441,-0.306193 0.0434,-0.888185 -0.002,-1.1992182 C 26.704901,7.9785829 25.392904,6.5768001 23.664062,6.1446662 23.176433,6.0227771 22.742844,6.0161651 21.251953,5.9981818 19.200487,5.9718965 16.897173,5.5308405 14.949219,4.3080178 13.717861,3.6601243 13.291385,3.4637849 12.707031,3.2767678 11.999895,3.0504582 11.511855,2.984444 10.699219,3.0033302 Z M 21.023438,8.999424 c 0.588263,3.94e-4 0.870779,0.00576 1.003906,0.021484 0.697032,0.08234 1.286183,0.3573081 1.644531,0.7675781 0.327697,0.3751859 0.412816,0.8158839 0.240234,1.2285159 -0.138649,0.331513 -0.289765,0.476902 -0.978515,0.941406 -0.704165,0.474912 -0.951671,0.671439 -1.199219,0.949219 -0.04471,0.05021 -0.09503,0.0918 -0.111328,0.0918 -0.01627,0 -0.07538,-0.04158 -0.130859,-0.0918 l -0.22461,-0.201172 c -0.591152,-0.534424 -1.034233,-1.02171 -1.173828,-1.287109 -0.05647,-0.107294 -0.0701,-0.165159 -0.08594,-0.373047 -0.04154,-0.544633 0.0748,-1.8950873 0.173829,-2.0195312 0.02039,-0.025687 0.08498,-0.027836 0.841799,-0.027341 z" style="opacity:0.2"/>
 <path style="fill:#e4e4e4" d="M 10.699219,2.0039062 C 9.6953403,2.0272396 8.8676977,2.1614041 8.0722656,2.4296875 7.5755196,2.5972327 7.0387475,2.8435759 6.8007812,3.0136719 6.6261043,3.1385213 6.4824219,3.4243512 6.4824219,3.6445312 c 0,0.1157823 0.055718,0.3071731 0.1191406,0.4101563 0.026235,0.042607 0.1826937,0.2275609 0.3496094,0.4101563 0.1669228,0.1825959 0.3646858,0.4011166 0.4394531,0.4863281 1.3810986,1.5739336 1.5912798,3.0548643 1.665586,4.890625 -0.094898,0.9497231 -0.471093,1.8942851 -1.232422,2.7714841 -1.5990722,2.043502 -1.9268999,2.890371 -2.4292578,4.222657 -0.1983224,0.525966 -0.3070318,0.971976 -0.3710937,1.515624 -0.031428,0.264821 -0.029966,1.180802 0.00195,1.623047 0.099569,1.379095 0.3645379,2.631721 0.828125,3.888672 0.051633,0.139988 0.1284909,0.348866 0.1699219,0.462891 0.4204676,1.155953 1.3639519,2.729034 2.3007813,3.841797 0.2250823,0.267348 0.8602826,0.910094 1.1894531,1.203125 0.3947648,0.351425 0.8138712,0.574556 1.1640622,0.617187 l 0,-0.002 c 0.0789,0.0095 2.056541,0.01647 4.394532,0.01367 l 4.25,-0.0039 0.158203,-0.04687 C 23,29 27.266952,21.357165 25.617185,17.035118 25,16 24.046751,15.639331 24.0332,14.855431 c 1.42e-4,-0.308879 0.0076,-0.419011 0.04102,-0.541016 0.08917,-0.325455 0.492163,-0.623249 0.724609,-0.898437 0.05655,-0.06696 0.330639,-0.348931 0.609375,-0.628907 0.662981,-0.665926 0.876849,-0.938624 1.132813,-1.445312 0.206467,-0.408693 0.355618,-0.893999 0.425781,-1.3808595 0.04441,-0.3061938 0.0434,-0.8881851 -0.002,-1.1992187 C 26.704901,6.9791589 25.392904,5.5773761 23.664062,5.1452422 23.176433,5.0233531 22.742844,5.0167411 21.251953,4.9987578 19.200487,4.9724725 16.897173,4.5314165 14.949219,3.3085938 13.717861,2.6607003 13.291385,2.4643609 12.707031,2.2773438 11.999895,2.0510342 11.511855,1.98502 10.699219,2.0039062 Z M 21.023438,8 c 0.588263,3.94e-4 0.870779,0.00576 1.003906,0.021484 0.697032,0.08234 1.286183,0.3573081 1.644531,0.7675781 0.327697,0.375186 0.412816,0.8158836 0.240234,1.2285159 -0.138649,0.331513 -0.289765,0.476902 -0.978515,0.941406 -0.704165,0.474912 -0.951671,0.671439 -1.199219,0.949219 C 21.689665,11.95841 21.639346,12 21.623047,12 c -0.01627,0 -0.07538,-0.04158 -0.130859,-0.0918 l -0.22461,-0.201172 C 20.676426,11.172604 20.233345,10.685318 20.09375,10.419919 20.03728,10.312625 20.02365,10.25476 20.00781,10.046872 19.96627,9.502239 20.08261,8.1517847 20.181639,8.0273408 20.202031,8.0016537 20.266614,7.999505 21.023438,8 Z"/>
 <path style="fill:#ffffff;opacity:0.2" d="M 10.699219 2.0039062 C 9.6953401 2.0272397 8.8676977 2.1614041 8.0722656 2.4296875 C 7.5755196 2.5972327 7.0387475 2.8435759 6.8007812 3.0136719 C 6.6261043 3.1385213 6.4824219 3.4243512 6.4824219 3.6445312 C 6.4824219 3.7603135 6.5381399 3.9517043 6.6015625 4.0546875 C 6.6079665 4.0650879 6.6673193 4.1290378 6.6875 4.1542969 C 6.7257684 4.1060364 6.7567774 4.0451234 6.8007812 4.0136719 C 7.0387475 3.8435759 7.5755196 3.5972327 8.0722656 3.4296875 C 8.8676977 3.1614041 9.6953401 3.0272396 10.699219 3.0039062 C 11.511855 2.98502 11.999895 3.0510342 12.707031 3.2773438 C 13.291385 3.4643608 13.717861 3.6607003 14.949219 4.3085938 C 16.897173 5.5314164 19.200487 5.9717616 21.251953 5.9980469 C 22.742844 6.0160302 23.176433 6.0226422 23.664062 6.1445312 C 25.392905 6.5766652 26.704947 7.9791969 26.964844 9.7617188 C 26.969117 9.7909929 26.967217 9.8413812 26.970703 9.875 C 27.005869 9.556641 27.006982 9.050403 26.964844 8.7617188 C 26.704947 6.9791968 25.392905 5.5766652 23.664062 5.1445312 C 23.176433 5.0226421 22.742844 5.0160302 21.251953 4.9980469 C 19.200487 4.9717616 16.897173 4.5314165 14.949219 3.3085938 C 13.717861 2.6607002 13.291385 2.4643609 12.707031 2.2773438 C 11.999895 2.0510342 11.511855 1.98502 10.699219 2.0039062 z M 23.875 10.089844 C 23.742583 10.369516 23.566163 10.53237 22.933594 10.958984 C 22.229429 11.433896 21.981923 11.630423 21.734375 11.908203 C 21.689665 11.95841 21.639346 12 21.623047 12 C 21.606777 12 21.547667 11.958423 21.492188 11.908203 L 21.267578 11.707031 C 20.676426 11.172607 20.233345 10.685321 20.09375 10.419922 C 20.05475 10.345821 20.048129 10.254759 20.035156 10.162109 C 20.015109 10.489207 19.992078 10.840583 20.007812 11.046875 C 20.023653 11.254763 20.03728 11.312628 20.09375 11.419922 C 20.233345 11.685321 20.676426 12.172607 21.267578 12.707031 L 21.492188 12.908203 C 21.547667 12.958423 21.606777 13 21.623047 13 C 21.639345 13 21.689665 12.958413 21.734375 12.908203 C 21.981923 12.630423 22.229429 12.433896 22.933594 11.958984 C 23.622344 11.49448 23.77346 11.349091 23.912109 11.017578 C 24.040161 10.711415 24.024514 10.388684 23.875 10.089844 z M 9.0039062 10.138672 C 8.8652889 10.987645 8.5060438 11.827686 7.8242188 12.613281 C 6.2251465 14.656783 5.8968892 15.503652 5.3945312 16.835938 C 5.1962088 17.361904 5.0874994 17.807915 5.0234375 18.351562 C 5.0041874 18.513769 5.0205215 18.9534 5.0253906 19.345703 C 5.089551 18.804953 5.1969881 18.359837 5.3945312 17.835938 C 5.8968892 16.503652 6.2251465 15.656783 7.8242188 13.613281 C 8.5855477 12.736082 8.9617426 11.79152 9.0566406 10.841797 C 9.0467325 10.597012 9.0211001 10.371901 9.0039062 10.138672 z M 24.121094 15.216797 C 24.106121 15.249207 24.083253 15.28148 24.074219 15.314453 C 24.040799 15.436458 24.033345 15.54659 24.033203 15.855469 C 24.046754 16.639369 25.000003 17.000038 25.617188 18.035156 C 25.818096 18.561495 25.927394 19.137391 25.964844 19.744141 C 26.026808 18.768475 25.925889 17.84389 25.617188 17.035156 C 25.103678 16.173918 24.365087 15.776483 24.121094 15.216797 z"/>
 <path style="opacity:0.2;fill:#ffffff" d="M 14.859375 17.003906 A 3 3 0 0 0 12.402344 18.5 A 3 3 0 0 0 12.044922 20.496094 A 3 3 0 0 1 12.402344 19.5 A 3 3 0 0 1 16.5 18.402344 A 3 3 0 0 1 17.955078 20.503906 A 3 3 0 0 0 16.5 17.402344 A 3 3 0 0 0 14.859375 17.003906 z"/>
</svg>
