<svg display="none"
   xmlns:dc="http://purl.org/dc/elements/1.1/"
   xmlns:cc="http://creativecommons.org/ns#"
   xmlns:rdf="http://www.w3.org/1999/02/22-rdf-syntax-ns#"
   xmlns:svg="http://www.w3.org/2000/svg"
   xmlns="http://www.w3.org/2000/svg"
   xmlns:sodipodi="http://sodipodi.sourceforge.net/DTD/sodipodi-0.dtd"
   xmlns:inkscape="http://www.inkscape.org/namespaces/inkscape"
   inkscape:export-ydpi="576"
   inkscape:export-xdpi="576"
   inkscape:export-filename="D:\Project Real\Maret 1\export\line\png\22 - EPUB file.png"
   version="1.1"
   inkscape:version="1.0 (4035a4fb49, 2020-05-01)"
   sodipodi:docname="23 - Curriculum vitae.svg">
   <symbol id="bio" width="23" height="23" viewBox="0 0 22.577778 22.577778" xmlns="http://www.w3.org/2000/svg">
  <defs
     id="defs825">
    <pattern
       id="EMFhbasepattern"
       patternUnits="userSpaceOnUse"
       width="6"
       height="6"
       x="0"
       y="0" />
    <pattern
       id="EMFhbasepattern-9"
       patternUnits="userSpaceOnUse"
       width="6"
       height="6"
       x="0"
       y="0" />
    <pattern
       id="EMFhbasepattern-0"
       patternUnits="userSpaceOnUse"
       width="6"
       height="6"
       x="0"
       y="0" />
    <pattern
       id="EMFhbasepattern-7"
       patternUnits="userSpaceOnUse"
       width="6"
       height="6"
       x="0"
       y="0" />
    <pattern
       id="EMFhbasepattern-2"
       patternUnits="userSpaceOnUse"
       width="6"
       height="6"
       x="0"
       y="0" />
    <pattern
       id="EMFhbasepattern-98"
       patternUnits="userSpaceOnUse"
       width="6"
       height="6"
       x="0"
       y="0" />
    <pattern
       id="EMFhbasepattern-6"
       patternUnits="userSpaceOnUse"
       width="6"
       height="6"
       x="0"
       y="0" />
    <pattern
       id="EMFhbasepattern-01"
       patternUnits="userSpaceOnUse"
       width="6"
       height="6"
       x="0"
       y="0" />
    <pattern
       id="EMFhbasepattern-07"
       patternUnits="userSpaceOnUse"
       width="6"
       height="6"
       x="0"
       y="0" />
    <pattern
       id="EMFhbasepattern-8"
       patternUnits="userSpaceOnUse"
       width="6"
       height="6"
       x="0"
       y="0" />
    <pattern
       id="EMFhbasepattern-4"
       patternUnits="userSpaceOnUse"
       width="6"
       height="6"
       x="0"
       y="0" />
    <pattern
       id="EMFhbasepattern-40"
       patternUnits="userSpaceOnUse"
       width="6"
       height="6"
       x="0"
       y="0" />
    <pattern
       id="EMFhbasepattern-08"
       patternUnits="userSpaceOnUse"
       width="6"
       height="6"
       x="0"
       y="0" />
    <pattern
       id="EMFhbasepattern-04"
       patternUnits="userSpaceOnUse"
       width="6"
       height="6"
       x="0"
       y="0" />
    <pattern
       id="EMFhbasepattern-014"
       patternUnits="userSpaceOnUse"
       width="6"
       height="6"
       x="0"
       y="0" />
    <pattern
       id="EMFhbasepattern-27"
       patternUnits="userSpaceOnUse"
       width="6"
       height="6"
       x="0"
       y="0" />
    <pattern
       id="EMFhbasepattern-09"
       patternUnits="userSpaceOnUse"
       width="6"
       height="6"
       x="0"
       y="0" />
    <pattern
       id="EMFhbasepattern-5"
       patternUnits="userSpaceOnUse"
       width="6"
       height="6"
       x="0"
       y="0" />
    <pattern
       id="EMFhbasepattern-018"
       patternUnits="userSpaceOnUse"
       width="6"
       height="6"
       x="0"
       y="0" />
  </defs>
  <sodipodi:namedview
     id="base"
     borderopacity="1.0"
     inkscape:pageopacity="0.0"
     inkscape:pageshadow="2"
     inkscape:zoom="6.2578125"
     inkscape:cx="42.666667"
     inkscape:cy="42.666667"
     inkscape:document-units="pt"
     inkscape:current-layer="layer1"
     showgrid="false"
     units="pt"
     inkscape:window-width="1366"
     inkscape:window-height="705"
     inkscape:window-x="-8"
     inkscape:window-y="-8"
     inkscape:window-maximized="1"
     inkscape:pagecheckerboard="true"
     inkscape:showpageshadow="false"
     inkscape:object-paths="true"
     inkscape:snap-intersection-paths="true"
     inkscape:snap-smooth-nodes="true"
     inkscape:snap-midpoints="true"
     showguides="true"
     inkscape:snap-bbox="true"
     inkscape:bbox-nodes="true"
     inkscape:snap-nodes="false"
     inkscape:snap-global="true"
     inkscape:document-rotation="0">
    <inkscape:grid
       type="xygrid"
       id="grid1378" />
    <sodipodi:guide
       position="0.97013831,21.607643"
       orientation="78.000048,0"
       id="guide1380"
       inkscape:locked="false" />
    <sodipodi:guide
       position="0.97013831,0.97013129"
       orientation="0,78.000005"
       id="guide1382"
       inkscape:locked="false" />
    <sodipodi:guide
       position="21.607639,0.97013129"
       orientation="-78.000048,0"
       id="guide1384"
       inkscape:locked="false" />
    <sodipodi:guide
       position="21.607639,21.607643"
       orientation="0,-78.000005"
       id="guide1386"
       inkscape:locked="false" />
  </sodipodi:namedview>
  <metadata
     id="metadata828">
    <rdf:RDF>
      <cc:Work
         rdf:about="">
        <dc:format>image/svg+xml</dc:format>
        <dc:type
           rdf:resource="http://purl.org/dc/dcmitype/StillImage" />
        <dc:title></dc:title>
      </cc:Work>
    </rdf:RDF>
  </metadata>
  <g
     inkscape:label="Icon"
     inkscape:groupmode="layer"
     id="layer1"
     transform="translate(0,-274.42223)">
    <path
       id="path1430"
       style="font-style:normal;font-variant:normal;font-weight:normal;font-stretch:normal;font-size:medium;line-height:normal;font-family:sans-serif;font-variant-ligatures:normal;font-variant-position:normal;font-variant-caps:normal;font-variant-numeric:normal;font-variant-alternates:normal;font-variant-east-asian:normal;font-feature-settings:normal;font-variation-settings:normal;text-indent:0;text-align:start;text-decoration:none;text-decoration-line:none;text-decoration-style:solid;letter-spacing:normal;word-spacing:normal;text-transform:none;writing-mode:lr-tb;direction:ltr;text-orientation:mixed;dominant-baseline:auto;baseline-shift:baseline;text-anchor:start;white-space:normal;shape-padding:0;shape-margin:0;inline-size:0;clip-rule:nonzero;display:inline;overflow:visible;visibility:visible;isolation:auto;mix-blend-mode:normal;color-interpolation:sRGB;color-interpolation-filters:linearRGB;solid-opacity:1;vector-effect:none;fill:var(--primary, none);fill-opacity:1;fill-rule:nonzero;stroke:none;stroke-width:0.529167;stroke-linecap:round;stroke-linejoin:round;stroke-miterlimit:4;stroke-dasharray:none;stroke-dashoffset:0;stroke-opacity:1;color-rendering:auto;image-rendering:auto;shape-rendering:auto;text-rendering:auto;enable-background:accumulate"
       d="m 15.362984,288.20414 -0.01813,-11.78125 c -8.19e-4,-0.56511 -0.464823,-1.03053 -1.030533,-1.03053 H 2.0177942 c -0.56571,0 -1.03120389,0.46483 -1.03120389,1.03053 v 18.57578 c 0,0.56572 0.46549389,1.0312 1.03120389,1.0312 H 16.517126 c 0.569919,0 1.016048,-0.11674 1.364415,-0.33791 0.348365,-0.22115 0.614693,-0.57694 0.614691,-1.00029 v -0.72622 h 2.749653 c 0.190021,7.2e-4 0.344629,-0.1526 0.345302,-0.34262 v -4.12884 c -5e-6,-0.41455 -0.270052,-0.75314 -0.616706,-0.96738 -0.346654,-0.21424 -0.790208,-0.33254 -1.355681,-0.3275 z M 2.0177942,276.08028 H 14.314313 c 0.196499,0 0.345017,0.14819 0.345303,0.34529 l 0.02553,18.27348 c 0.01261,0.27763 0.03861,0.5044 0.354708,0.6429 H 2.0177942 c -0.1964984,0 -0.3426151,-0.14677 -0.342615,-0.34328 v -18.57578 c 0,-0.1965 0.1461166,-0.34261 0.342615,-0.34261 z m 1.7211366,1.0312 c -0.5657101,0 -1.0332193,0.46751 -1.0332193,1.03321 v 4.12617 c 0,0.56571 0.467517,1.03321 1.0332193,1.03321 h 2.7496535 c 0.5657022,0 1.033891,-0.4675 1.033891,-1.03321 v -4.12617 c 0,-0.5657 -0.4681813,-1.03321 -1.033891,-1.03321 z m 0,0.68792 h 2.7496535 c 0.196498,0 0.3459738,0.14881 0.3459738,0.34529 v 4.12617 c 6.5e-6,-0.94574 -0.773374,-1.71912 -1.7191212,-1.71912 -0.9457465,0 -1.7218148,0.77338 -1.7218083,1.71912 v -4.12617 c 0,-0.19648 0.1488038,-0.34529 0.3453022,-0.34529 z m 1.3765061,2.75234 c 0.5658178,0 1.0305357,-0.46538 1.0305322,-1.0312 -7.1e-6,-0.5658 -0.4647217,-1.03323 -1.0305322,-1.03323 -0.5658102,0 -1.0338838,0.46743 -1.0338911,1.03323 -3.3e-6,0.56582 0.4680733,1.0312 1.0338911,1.0312 z m 3.4375707,-2.75234 c -0.1899636,7.4e-4 -0.3433584,0.15534 -0.3426152,0.34529 7.223e-4,0.18892 0.1537001,0.34189 0.3426152,0.34262 h 4.9793384 c 0.188915,-7.2e-4 0.341878,-0.1537 0.342615,-0.34262 7.57e-4,-0.18995 -0.152653,-0.34455 -0.342615,-0.34529 z m -3.4375707,1.37583 c 0.1940353,0 0.3426126,0.15128 0.3426151,0.34531 1.1e-6,0.19403 -0.1485771,0.34327 -0.3426151,0.34327 -0.1940378,0 -0.3453032,-0.14924 -0.3453021,-0.34327 2.5e-6,-0.19403 0.1512672,-0.34531 0.3453021,-0.34531 z m 3.4375707,0.68858 c -0.1899636,7.7e-4 -0.3433584,0.15534 -0.3426152,0.34531 7.223e-4,0.18892 0.1537001,0.34188 0.3426152,0.34262 h 2.2753664 c 0.189964,7.5e-4 0.344562,-0.15265 0.345302,-0.34262 7.58e-4,-0.19101 -0.154288,-0.34605 -0.345302,-0.34531 z m -3.4375707,1.37585 c 0.5739641,0 1.030536,0.45723 1.0305322,1.0312 v 0.3453 H 4.0815458 v -0.3453 c -3.7e-6,-0.57397 0.4599278,-1.0312 1.0338911,-1.0312 z m 3.4375707,0.68791 c -0.1891763,7.2e-4 -0.3422471,0.15411 -0.3426152,0.34329 -7.567e-4,0.18997 0.1526516,0.34456 0.3426152,0.3453 h 4.0347954 c 0.189964,-7.6e-4 0.343359,-0.15533 0.342615,-0.3453 -3.78e-4,-0.18918 -0.153439,-0.34255 -0.342615,-0.34329 z m -5.159379,2.75235 c -0.3751503,0 -0.6879171,0.31343 -0.6879171,0.68858 v 1.37315 c 0,0.37516 0.3127512,0.68859 0.6879171,0.68859 h 1.3765062 c 0.375166,0 0.6879172,-0.31343 0.6879172,-0.68859 v -1.37315 c 0,-0.37515 -0.3127671,-0.68858 -0.6879172,-0.68858 z m 0,0.68858 h 1.3765062 v 1.37315 H 3.3936286 Z m 3.0949557,1.03054 c -0.1889151,7.2e-4 -0.3418787,0.1537 -0.3426152,0.34261 -7.432e-4,0.18996 0.1526516,0.34455 0.3426152,0.3453 h 6.9141047 c 0.191014,7.6e-4 0.34605,-0.15429 0.345302,-0.3453 -7.41e-4,-0.18997 -0.155338,-0.34337 -0.345302,-0.34261 z m -3.0949557,1.71912 c -0.3751503,0 -0.6879171,0.31275 -0.6879171,0.68791 v 1.3765 c 0,0.37516 0.3127512,0.68792 0.6879171,0.68792 h 1.3765062 c 0.375166,0 0.6879172,-0.31276 0.6879172,-0.68792 v -1.3765 c 0,-0.37516 -0.3127671,-0.68791 -0.6879172,-0.68791 z m 0,0.68791 h 1.3765062 v 1.3765 H 3.3936286 Z m 17.2200984,0.30499 c 0.213543,0.13198 0.289543,0.26917 0.289544,0.38293 v 3.78355 h -2.407039 v -3.78355 c 1e-6,-0.11375 0.076,-0.25095 0.289543,-0.38293 0.180711,-0.11167 0.447101,-0.19443 0.83101,-0.2237 0.452601,-0.005 0.783398,0.0918 0.996942,0.2237 z m -5.249399,-0.21832 h 2.653587 c -0.128557,0.17299 -0.209597,0.37527 -0.209601,0.60125 -3e-4,1.73309 0,3.46655 0,5.19768 -0.167318,0.50765 -0.749851,0.64513 -1.206541,0.64962 -0.576124,-0.0257 -1.000746,-0.18883 -1.228712,-0.66508 z m -8.8757437,0.94655 c -0.1891763,7.3e-4 -0.3422471,0.15411 -0.3426152,0.34328 -7.567e-4,0.18997 0.1526516,0.34457 0.3426152,0.34531 h 6.8737967 c 0.189964,-7.5e-4 0.343359,-0.15534 0.342615,-0.34531 -3.78e-4,-0.18917 -0.153438,-0.34255 -0.342615,-0.34328 z m -3.0949557,1.71913 c -0.3751503,0 -0.6879171,0.31274 -0.6879171,0.6879 v 1.37651 c 0,0.37515 0.3127512,0.68792 0.6879171,0.68792 h 1.3765062 c 0.375166,0 0.6879172,-0.31277 0.6879172,-0.68792 v -1.37651 c 0,-0.37516 -0.3127671,-0.6879 -0.6879172,-0.6879 z m 0,0.6879 h 1.3765062 v 1.37651 H 3.3936286 Z m 3.0949557,1.03122 c -0.1899636,7.4e-4 -0.3433584,0.15533 -0.3426152,0.34529 7.223e-4,0.18892 0.1537001,0.34189 0.3426152,0.34262 h 6.8737967 c 0.188916,-7.2e-4 0.341879,-0.1537 0.342615,-0.34262 7.57e-4,-0.18996 -0.152651,-0.34455 -0.342615,-0.34529 z"
       sodipodi:nodetypes="ccsssssscsccccsccsscccscsssssssssssssscscssscscsccccsccssscscccccccsccccscccccccsssssssssccccccsccsccsssssssssccccccccccsccccccccccccccccsssssssssccccccsccscc" />
  </g>
</svg>
