<?xml version="1.0" standalone="no"?>
<!DOCTYPE svg PUBLIC "-//W3C//DTD SVG 20010904//EN"
 "http://www.w3.org/TR/2001/REC-SVG-20010904/DTD/svg10.dtd">
<svg version="1.0" xmlns="http://www.w3.org/2000/svg"
 viewBox="25 30 380 60"
 preserveAspectRatio="xMidYMid meet">

<g transform="translate(0.000000,100.000000) scale(0.100000,-0.100000)"
fill="#fff" stroke="none">
<path d="M737 654 c-13 -14 -7 -44 9 -44 13 0 14 3 4 15 -10 12 -9 16 5 21 22
9 48 -17 39 -39 -11 -29 -53 -31 -154 -7 -109 26 -160 22 -185 -13 -22 -31
-19 -53 11 -76 28 -22 88 -28 114 -11 11 7 2 8 -27 4 -75 -11 -123 44 -71 80
27 19 59 20 128 4 40 -9 49 -15 44 -27 -3 -9 -10 -52 -15 -96 -5 -44 -14 -92
-20 -106 -16 -41 -66 -63 -128 -57 -64 6 -93 30 -89 72 7 75 158 107 158 34 0
-28 -45 -44 -81 -31 -23 9 -29 9 -26 0 8 -26 83 -20 111 9 34 33 6 74 -51 74
-52 0 -102 -28 -121 -67 -15 -31 -15 -35 4 -60 41 -55 164 -58 216 -6 26 27
31 41 38 109 5 44 11 91 15 106 7 26 9 27 51 21 60 -8 96 15 92 60 -3 27 -7
32 -33 35 -17 2 -34 0 -38 -4z"/>
<path d="M2160 572 c0 -52 -28 -155 -45 -168 -8 -6 -12 -13 -9 -17 9 -9 -24
-64 -52 -86 -49 -39 -94 -20 -94 40 0 34 47 107 80 124 39 20 49 19 60 -7 8
-21 9 -21 9 -3 1 51 -38 57 -92 15 -32 -26 -67 -97 -67 -138 0 -37 30 -72 62
-72 32 0 82 43 103 89 12 28 25 41 39 42 15 1 16 3 5 6 -14 3 -15 10 -6 49 11
46 27 43 27 -7 0 -32 28 -117 42 -125 5 -3 14 -2 20 4 6 6 16 8 24 5 8 -3 22
9 34 29 17 27 20 29 20 12 0 -26 22 -46 43 -38 8 3 18 1 22 -5 3 -6 12 -11 20
-11 16 0 55 38 55 54 0 5 -9 0 -20 -12 -24 -26 -45 -28 -54 -6 -9 23 -8 24 12
24 38 0 59 54 26 67 -21 8 -45 -17 -53 -56 -9 -47 -26 -37 -25 14 0 37 -2 42
-14 33 -7 -7 -21 -29 -29 -50 -18 -46 -38 -51 -29 -8 3 17 1 30 -4 30 -6 0
-10 -4 -10 -9 0 -5 -5 -22 -10 -36 -9 -23 -13 -25 -25 -15 -17 14 -20 50 -5
50 6 0 10 5 10 10 0 6 -6 10 -14 10 -18 0 -25 27 -33 123 -6 79 -23 107 -23
39z m268 -164 c-4 -27 -28 -36 -28 -10 0 20 8 32 22 32 5 0 8 -10 6 -22z"/>
<path d="M3200 572 c0 -52 -28 -155 -45 -168 -8 -6 -12 -13 -9 -17 9 -9 -24
-64 -52 -86 -49 -39 -94 -20 -94 40 0 34 47 107 80 124 39 20 49 19 60 -7 8
-21 9 -21 9 -3 1 51 -38 57 -92 15 -32 -26 -67 -97 -67 -138 0 -37 30 -72 62
-72 32 0 82 43 103 89 12 28 25 41 39 42 15 1 16 3 5 6 -14 3 -15 10 -6 49 11
46 27 43 27 -7 0 -33 29 -117 43 -126 5 -3 19 4 29 17 10 12 18 16 18 9 0 -8
6 -5 15 7 15 19 16 19 31 -3 18 -25 43 -30 62 -11 10 10 15 10 21 -1 12 -18
46 -6 58 22 11 22 11 22 23 -8 7 -16 15 -49 17 -71 4 -33 1 -46 -16 -63 -29
-29 -76 -27 -106 4 -16 15 -25 19 -25 10 0 -20 49 -55 77 -55 14 0 38 13 55
31 28 28 30 34 25 79 -5 40 -3 48 8 44 9 -4 22 7 35 28 17 27 20 29 20 12 0
-29 26 -50 43 -35 10 7 17 7 24 0 8 -8 17 -8 32 0 14 8 21 8 21 1 0 -14 30
-13 35 3 21 60 25 66 40 61 8 -4 15 -18 15 -34 0 -34 15 -46 35 -30 10 8 19 9
28 3 10 -9 87 -16 87 -8 0 1 7 20 16 41 16 40 10 42 -10 3 -16 -31 -31 -24
-31 16 0 72 -44 72 -75 0 -24 -55 -45 -51 -37 6 3 22 1 39 -4 39 -5 0 -9 -6
-10 -12 -1 -7 -4 -2 -9 12 -7 23 -8 24 -14 5 -17 -46 -42 -88 -51 -86 -5 1 -9
21 -8 44 2 32 0 37 -7 22 -5 -11 -11 -33 -15 -48 -10 -48 -30 -25 -29 32 2 61
-13 56 -24 -8 -9 -53 -27 -49 -26 6 0 40 -1 42 -18 27 -9 -9 -22 -32 -28 -50
-14 -42 -34 -45 -28 -4 6 40 -9 38 -20 -2 l-9 -33 -8 45 -8 44 -20 -42 c-25
-54 -42 -49 -41 12 0 51 -8 50 -25 -6 -14 -42 -42 -71 -49 -50 -2 7 -13 21
-24 32 -16 15 -18 22 -8 40 12 22 40 24 48 3 2 -8 -5 -13 -20 -13 -18 0 -20
-2 -8 -10 19 -12 45 12 37 34 -10 27 -54 19 -71 -11 -13 -24 -15 -25 -16 -8
-1 14 -3 16 -7 5 -27 -74 -33 -82 -48 -70 -17 14 -20 50 -5 50 6 0 10 5 10 10
0 6 -6 10 -14 10 -18 0 -25 27 -33 123 -6 79 -23 107 -23 39z m732 -187 c-4
-37 -16 -50 -36 -42 -30 12 -9 81 22 75 12 -2 16 -11 14 -33z"/>
<path d="M1322 564 c-31 -13 -58 -123 -34 -138 5 -3 6 8 4 24 -6 43 5 78 32
95 46 30 77 -12 37 -49 -25 -22 -48 -12 -29 12 12 15 11 16 -4 3 -26 -20 -22
-41 7 -41 52 0 76 93 25 97 -14 1 -31 -1 -38 -3z"/>
<path d="M706 499 c-9 -48 -7 -134 4 -164 14 -36 40 -29 62 15 13 26 17 30 18
14 0 -39 54 -62 66 -29 3 8 14 17 25 20 10 4 19 11 19 17 0 6 -6 6 -15 -2 -13
-11 -15 -8 -15 13 0 50 -53 76 -70 35 -5 -13 -9 -18 -10 -13 0 6 -9 -9 -20
-32 -36 -81 -66 -39 -56 79 7 80 3 102 -8 47z m146 -104 c8 -19 8 -28 -2 -40
-16 -19 -36 -19 -44 1 -9 24 -7 36 6 28 7 -4 8 -3 4 4 -8 14 0 32 15 32 5 0
14 -11 21 -25z"/>
<path d="M1165 479 c-11 -4 -39 -8 -62 -8 -24 -1 -43 -5 -43 -9 0 -7 120 -4
129 4 11 10 -7 20 -24 13z"/>
<path d="M2802 448 c-18 -18 -15 -35 10 -52 21 -15 21 -16 3 -36 -26 -29 -38
-25 -31 10 7 39 -8 39 -24 0 -14 -33 -48 -49 -61 -29 -13 21 -11 29 10 29 11
0 23 5 27 12 4 7 3 8 -4 4 -20 -12 -33 3 -22 25 12 22 27 25 33 7 2 -8 3 -7 3
2 -2 30 -41 16 -59 -23 -18 -35 -18 -39 -3 -62 19 -29 38 -32 61 -8 13 13 19
13 25 4 11 -19 43 -5 62 26 16 25 17 26 18 7 0 -12 7 -28 16 -35 14 -11 19
-10 35 10 11 13 19 33 19 45 -1 16 -4 13 -16 -13 -18 -42 -26 -35 -39 32 -8
40 -15 53 -30 55 -11 1 -26 -3 -33 -10z m48 -24 c0 -31 -23 -28 -28 4 -2 15 2
22 12 22 11 0 16 -9 16 -26z"/>
<path d="M1655 440 c-3 -5 -9 -28 -13 -50 -9 -53 -27 -48 -26 7 0 40 -1 42
-18 27 -9 -9 -22 -32 -28 -50 -14 -42 -34 -45 -28 -4 5 34 1 37 -17 13 -9 -12
-10 -23 -2 -40 14 -31 24 -29 47 10 17 27 20 29 20 11 0 -29 26 -50 43 -35 10
8 17 7 25 -1 8 -8 15 -8 28 3 13 11 18 11 21 2 4 -12 33 -19 33 -9 0 2 3 13 7
23 6 15 5 16 -9 5 -22 -18 -30 -1 -23 45 4 28 3 33 -4 18 -5 -11 -12 -33 -16
-48 -10 -48 -30 -26 -29 32 2 52 0 59 -11 41z"/>
<path d="M2032 438 c-17 -17 -15 -58 4 -65 15 -6 64 32 64 50 0 6 -10 1 -23
-11 -13 -12 -29 -22 -35 -22 -16 0 -15 33 0 48 7 7 10 12 7 12 -3 0 -10 -5
-17 -12z"/>
<path d="M3072 438 c-17 -17 -15 -58 4 -65 15 -6 64 32 64 50 0 6 -10 1 -23
-11 -13 -12 -29 -22 -35 -22 -16 0 -15 33 0 48 7 7 10 12 7 12 -3 0 -10 -5
-17 -12z"/>
<path d="M907 413 c-3 -15 -1 -36 5 -47 6 -11 11 -54 12 -98 0 -47 5 -76 11
-74 6 2 9 32 8 70 -2 64 -2 66 18 55 29 -15 45 -6 68 38 l20 38 1 -33 c0 -45
20 -37 36 14 l12 39 1 -35 c1 -34 16 -69 24 -60 2 3 11 25 20 50 15 43 15 44
16 13 2 -61 32 -88 47 -41 6 20 7 21 20 4 8 -12 19 -16 33 -11 19 6 20 1 23
-61 2 -51 7 -70 21 -78 27 -17 39 10 33 70 -6 50 -5 51 18 47 15 -3 30 2 43
16 18 19 21 20 33 6 32 -38 80 -1 69 54 -7 33 -23 51 -45 51 -6 0 -24 -26 -40
-57 -19 -37 -36 -59 -49 -61 -19 -4 -18 -3 3 18 28 26 27 77 -1 94 -15 9 -22
6 -38 -14 -48 -59 -61 -71 -72 -67 -19 6 -20 53 -2 71 9 9 12 16 6 16 -15 0
-51 -41 -51 -59 0 -9 -5 -23 -10 -31 -9 -13 -11 -13 -20 0 -5 8 -10 30 -10 48
0 44 -17 40 -40 -10 l-19 -43 0 48 c-1 59 -20 59 -38 1 -7 -25 -12 -31 -12
-17 -2 37 -18 35 -38 -4 -10 -21 -27 -40 -37 -42 -18 -3 -19 -2 -3 14 21 20
22 68 2 85 -12 10 -20 9 -41 -5 -24 -16 -26 -16 -21 -1 4 9 3 16 -2 16 -5 0
-11 -12 -14 -27z m71 -25 c3 -27 -20 -54 -38 -43 -13 8 -13 31 1 56 14 26 33
19 37 -13z m388 17 c9 -22 -4 -65 -19 -65 -28 0 -37 22 -21 51 16 32 32 37 40
14z m116 -10 c9 -21 9 -29 -5 -42 -13 -13 -19 -14 -31 -3 -18 14 -22 45 -4 34
7 -4 8 -3 4 4 -8 14 0 32 15 32 5 0 15 -11 21 -25z m-153 -157 c1 -32 -14 -37
-29 -9 -12 23 -14 84 -3 95 9 9 31 -50 32 -86z"/>
<path d="M1763 406 c-15 -32 -15 -37 1 -60 19 -30 45 -33 68 -8 9 9 24 23 32
30 9 7 16 18 16 24 0 5 -9 0 -20 -13 l-19 -24 -1 26 c0 26 -27 59 -48 59 -7 0
-20 -15 -29 -34z m59 -11 c8 -19 8 -28 -2 -40 -16 -19 -36 -19 -44 1 -9 24 -7
36 6 28 7 -4 8 -3 4 4 -8 14 0 32 15 32 5 0 14 -11 21 -25z"/>
<path d="M2496 413 c-13 -24 -15 -25 -16 -8 -1 18 -2 18 -10 3 -6 -9 -7 -30
-4 -47 6 -29 8 -30 21 -14 13 17 14 17 29 -4 17 -24 43 -30 60 -13 8 8 15 6
24 -5 15 -18 41 -20 58 -3 19 19 14 30 -7 17 -41 -26 -68 21 -41 72 6 10 8 19
5 19 -3 0 -14 -20 -25 -44 -20 -47 -41 -68 -48 -47 -2 7 -13 20 -24 31 -16 15
-18 22 -8 40 12 22 40 24 48 3 2 -8 -5 -13 -20 -13 -18 0 -20 -2 -8 -10 19
-12 45 12 37 34 -10 27 -54 19 -71 -11z"/>
<path d="M2637 434 c8 -4 11 -15 7 -31 -5 -19 -3 -24 7 -21 22 7 17 52 -6 55
-11 2 -14 0 -8 -3z"/>
</g>
</svg>
