<?xml version="1.0" standalone="no"?>
<!DOCTYPE svg PUBLIC "-//W3C//DTD SVG 20010904//EN"
 "http://www.w3.org/TR/2001/REC-SVG-20010904/DTD/svg10.dtd">
<svg version="1.0" xmlns="http://www.w3.org/2000/svg"
 viewBox="25 30 380 60"
 preserveAspectRatio="xMidYMid meet">

<g transform="translate(0.000000,100.000000) scale(0.100000,-0.100000)"
fill="#fff" stroke="none">
<path d="M520 624 c0 -47 -26 -177 -42 -206 -5 -10 -15 -18 -24 -18 -13 0 -13
4 1 30 28 54 15 100 -29 100 -84 0 -189 -151 -172 -244 20 -106 157 -72 211
52 14 30 25 42 48 46 43 9 47 8 47 -11 0 -26 37 -83 55 -83 8 0 23 16 33 37
19 36 19 36 25 11 4 -14 14 -28 22 -32 19 -7 45 3 45 17 0 6 11 0 25 -13 21
-20 30 -22 52 -14 15 5 38 24 50 43 21 32 23 32 23 10 -1 -13 -7 -35 -15 -49
-17 -29 -19 -60 -5 -60 6 0 10 6 10 14 0 8 5 27 10 41 8 22 13 25 25 15 16
-13 55 -5 55 12 0 7 10 2 23 -10 29 -27 48 -28 78 -3 22 17 26 18 41 4 23 -21
53 -9 71 29 l15 32 13 -45 c7 -24 13 -73 13 -107 1 -55 -2 -66 -23 -83 -35
-29 -77 -24 -113 11 -17 17 -33 29 -35 26 -12 -12 12 -49 42 -63 42 -20 94
-11 126 23 20 22 24 35 23 87 -1 34 -10 93 -21 132 l-20 70 -20 -46 c-38 -85
-68 -73 -59 24 3 31 4 57 1 57 -2 0 -11 -24 -20 -53 -24 -84 -71 -122 -95 -78
-15 29 -12 40 8 34 24 -6 54 30 50 59 -7 54 -88 12 -88 -46 0 -12 -6 -31 -14
-42 -14 -18 -16 -18 -31 -3 -16 15 -15 19 3 55 11 22 23 49 26 62 13 39 -9 23
-34 -25 l-25 -48 -3 33 c-4 35 -22 45 -22 12 0 -33 -38 -98 -60 -105 -25 -8
-50 10 -50 35 0 13 6 17 18 13 24 -6 54 30 50 59 -7 54 -69 24 -90 -44 -21
-72 -50 -73 -64 -2 -4 25 -1 37 19 56 41 41 61 144 37 189 -14 25 -26 24 -45
-5 -17 -26 -47 -179 -39 -201 7 -17 -31 -105 -45 -105 -9 0 -41 61 -41 76 0 2
9 4 20 4 27 0 25 18 -2 22 -20 3 -24 12 -35 78 -6 41 -12 99 -12 128 -1 28 -5
52 -11 52 -5 0 -10 -20 -10 -46z m210 -53 c0 -46 -17 -100 -38 -121 -13 -13
-14 -7 -8 53 8 77 22 121 36 112 5 -3 10 -23 10 -44z m-192 -103 c8 -52 7 -57
-12 -62 -11 -3 -22 -4 -24 -2 -2 2 2 31 9 65 7 33 14 59 15 58 2 -2 7 -28 12
-59z m-90 12 c3 -28 -30 -88 -54 -97 -29 -11 -41 15 -22 47 20 35 7 41 -16 8
-21 -29 -20 -67 0 -75 9 -3 32 2 51 11 45 22 60 9 39 -32 -46 -89 -121 -128
-158 -82 -24 30 -23 75 6 135 45 96 146 152 154 85z m369 -66 c7 -20 -11 -38
-32 -30 -13 4 -14 10 -5 26 13 24 28 26 37 4z m233 -3 c0 -24 -15 -35 -36 -27
-12 4 -13 10 -4 26 14 26 40 26 40 1z"/>
<path d="M1728 603 c-7 -96 -37 -195 -60 -201 -14 -3 -16 -8 -7 -18 8 -10 5
-24 -16 -59 -28 -49 -76 -85 -112 -85 -34 0 -57 42 -50 91 11 81 100 184 152
177 45 -7 5 -128 -42 -128 -22 0 -26 28 -9 55 9 14 12 25 6 25 -19 0 -42 -49
-36 -75 12 -47 65 -29 105 35 52 85 4 139 -78 89 -45 -27 -67 -53 -96 -114
-33 -66 -33 -118 0 -150 28 -29 54 -31 100 -9 33 15 87 81 99 120 4 14 18 24
38 28 44 9 48 8 48 -11 0 -26 37 -83 55 -83 8 0 21 12 28 27 14 26 15 26 21 5
9 -28 26 -29 19 -2 -7 26 3 25 39 -5 38 -32 61 -32 87 1 19 25 20 25 31 5 13
-25 33 -27 51 -5 11 14 13 14 21 0 14 -25 37 -19 56 13 l18 30 11 -30 c12 -32
33 -37 56 -14 13 13 16 13 27 0 19 -23 38 -18 54 13 9 16 15 21 16 11 0 -22
32 -49 57 -49 12 0 33 14 48 31 25 31 26 31 32 10 9 -33 23 -21 45 38 22 59
38 55 38 -10 0 -36 14 -59 38 -59 14 0 56 84 50 102 -2 6 -12 -10 -22 -35 -25
-67 -46 -58 -46 21 0 43 -13 68 -30 57 -6 -4 -22 -30 -35 -58 l-23 -52 -1 46
c-1 34 3 49 14 53 22 8 55 84 55 127 0 44 -19 73 -43 64 -19 -8 -47 -91 -47
-142 0 -20 -5 -33 -12 -33 -10 0 -9 -3 1 -9 31 -20 -18 -131 -58 -131 -41 0
-56 64 -25 108 22 32 37 28 29 -8 -7 -31 10 -43 21 -15 10 26 -5 65 -26 65
-21 0 -47 -34 -75 -98 -25 -57 -40 -48 -39 21 1 66 -8 66 -26 2 -22 -80 -51
-83 -66 -6 -5 26 -3 36 10 43 53 30 76 218 26 218 -28 0 -57 -95 -64 -212 -4
-64 -22 -111 -39 -105 -8 3 -11 22 -9 58 2 50 1 52 -13 35 -8 -11 -15 -32 -15
-47 0 -14 -7 -32 -16 -40 -24 -20 -36 7 -30 74 2 33 0 55 -5 51 -5 -3 -9 -12
-9 -19 0 -8 -11 -39 -24 -70 -26 -57 -39 -65 -78 -44 -19 10 -19 12 11 30 47
28 56 99 12 99 -10 0 -33 -16 -50 -35 -17 -20 -31 -29 -31 -21 0 7 13 27 28
44 61 65 71 202 14 202 -19 0 -50 -77 -58 -143 -4 -31 -11 -57 -15 -57 -5 0
-4 -8 2 -18 9 -15 7 -28 -10 -66 -24 -54 -41 -56 -57 -5 -11 30 -10 34 7 37
25 4 25 22 0 22 -11 0 -22 8 -25 18 -11 35 -26 149 -26 195 0 71 -17 56 -22
-20z m222 -25 c0 -45 -20 -105 -42 -124 -17 -16 -18 -16 -18 3 0 36 22 138 32
150 15 19 28 6 28 -29z m310 -6 c0 -51 -17 -107 -37 -123 -15 -13 -16 -8 -9
54 8 78 22 121 36 112 5 -3 10 -23 10 -43z m300 4 c0 -43 -11 -81 -32 -106
l-20 -25 5 61 c5 65 22 108 38 99 5 -4 9 -17 9 -29z m-820 -168 c-35 -15 -38
-9 -24 39 8 25 15 58 15 72 1 14 7 -3 13 -39 10 -56 9 -66 -4 -72z m238 0 c4
-20 -24 -48 -49 -48 -25 0 -24 18 3 47 24 25 41 26 46 1z"/>
<path d="M3785 617 c-17 -26 -35 -110 -37 -172 -1 -41 -22 -95 -37 -95 -5 0
-11 17 -15 39 -7 46 -30 70 -53 55 -9 -6 -28 -31 -42 -57 l-25 -47 -26 25
c-14 14 -31 25 -38 25 -17 0 -15 27 3 34 34 13 58 120 36 155 -8 12 -12 12
-25 2 -21 -18 -35 -66 -45 -155 -5 -42 -15 -83 -22 -92 -12 -14 -14 -14 -26 2
-13 18 -18 90 -7 118 3 9 17 16 31 16 13 0 21 4 18 10 -3 6 -15 10 -25 10 -13
0 -20 9 -23 28 l-3 27 -13 -32 c-8 -19 -21 -34 -34 -36 -22 -4 -22 -5 2 -12
21 -7 23 -12 18 -51 -5 -49 -32 -98 -49 -88 -7 4 -8 26 -4 60 6 50 -5 73 -18
39 -9 -24 -26 -17 -26 11 0 14 -4 23 -10 19 -5 -3 -10 -20 -10 -36 0 -33 -15
-69 -29 -69 -5 0 -11 17 -15 39 -7 46 -30 70 -54 54 -9 -5 -28 -33 -42 -60
-31 -62 -48 -83 -68 -83 -13 0 -13 3 2 19 22 24 31 83 17 110 -16 28 -47 27
-76 -5 l-24 -25 -5 33 c-2 18 -2 -12 2 -67 3 -55 6 -130 6 -168 1 -37 4 -67 8
-67 15 0 20 51 13 117 l-7 67 27 -18 c35 -23 70 -14 89 22 9 15 15 22 16 15 0
-16 29 -43 45 -43 8 0 26 11 41 25 15 14 31 25 36 25 4 0 13 11 19 24 6 13 19
26 28 29 14 3 16 -2 13 -30 -8 -63 36 -84 65 -30 16 32 17 32 23 8 8 -35 39
-51 53 -29 10 14 14 5 23 -53 13 -72 26 -99 51 -99 22 0 46 68 41 120 -3 30 0
50 9 58 10 10 13 10 13 -1 0 -17 32 -47 50 -47 8 0 23 9 35 20 69 66 75 70 75
42 0 -11 9 -27 20 -37 19 -17 22 -18 37 -2 16 15 18 15 35 1 21 -20 46 -12 57
18 8 21 8 21 15 -5 9 -39 50 -47 82 -16 13 13 33 33 44 43 11 11 20 27 20 35
-1 10 -7 5 -16 -11 -20 -38 -30 -35 -38 11 -7 46 -30 70 -54 55 -9 -6 -30 -36
-47 -67 -16 -31 -34 -55 -40 -53 -5 2 -9 28 -9 59 1 62 -10 66 -26 9 -5 -21
-16 -46 -25 -57 -13 -17 -16 -18 -25 -5 -5 8 -12 29 -16 46 -4 25 -1 37 19 56
54 54 65 208 15 208 -4 0 -14 -10 -23 -23z m32 -69 c-3 -32 -13 -71 -24 -86
l-18 -27 -3 30 c-4 27 14 129 25 148 2 4 9 4 15 1 6 -4 8 -29 5 -66z m-292
-79 l-15 -34 4 57 c5 71 20 98 24 47 2 -20 -4 -52 -13 -70z m-451 -55 c18 -46
-15 -102 -52 -90 -29 10 -29 52 0 83 25 27 43 29 52 7z m136 -10 c21 -54 4
-74 -26 -29 -16 25 -13 55 6 55 6 0 15 -12 20 -26z m460 7 c13 -25 13 -61 0
-61 -15 0 -43 48 -36 65 8 21 23 19 36 -4z m320 -7 c21 -54 4 -74 -26 -29 -16
25 -13 55 6 55 6 0 15 -12 20 -26z m-784 -91 c-12 -12 -41 13 -45 38 l-3 24
28 -28 c15 -15 24 -30 20 -34z m324 42 c7 -9 10 -18 7 -22 -8 -7 -37 15 -37
28 0 14 16 11 30 -6z m136 -42 c-11 -12 -41 12 -44 36 -3 21 -3 21 24 -4 15
-14 24 -28 20 -32z m320 0 c-12 -12 -41 13 -45 38 l-3 24 28 -28 c15 -15 24
-30 20 -34z m-452 -3 c23 -8 26 -15 26 -57 0 -87 -32 -97 -51 -17 -9 42 -12
84 -5 84 3 0 16 -4 30 -10z"/>
<path d="M2286 524 c-4 -15 -3 -31 2 -36 14 -14 50 0 57 22 8 27 -2 40 -30 40
-16 0 -25 -7 -29 -26z m44 -9 c0 -8 -7 -15 -15 -15 -8 0 -15 7 -15 15 0 8 7
15 15 15 8 0 15 -7 15 -15z"/>
<path d="M3848 525 c-14 -31 0 -50 30 -40 22 6 37 38 27 55 -12 19 -45 10 -57
-15z m42 -10 c0 -8 -7 -15 -15 -15 -8 0 -15 7 -15 15 0 8 7 15 15 15 8 0 15
-7 15 -15z"/>
<path d="M2670 521 c0 -13 41 -41 60 -41 9 0 4 9 -15 25 -32 26 -45 31 -45 16z"/>
<path d="M2758 464 c-17 -17 -6 -50 29 -86 41 -42 40 -54 -2 -38 -33 12 -55 7
-55 -13 0 -22 36 -49 61 -45 24 3 89 89 89 117 -1 9 -10 -2 -22 -24 -19 -36
-22 -38 -28 -19 -5 11 -19 28 -33 37 -17 11 -27 28 -29 48 -2 17 -6 27 -10 23z
m32 -149 c24 -13 24 -14 4 -15 -12 0 -27 7 -34 15 -16 19 -3 19 30 0z"/>
</g>
</svg>
