<svg display="none" version="1.1" id="Layer_1" xmlns="http://www.w3.org/2000/svg" xmlns:xlink="http://www.w3.org/1999/xlink" x="0px" y="0px" xml:space="preserve">
   <symbol id="servers" width="30" height="24" viewBox="0 0 30 24" xmlns="http://www.w3.org/2000/svg" fill="var(--secondary, none)">
<g transform="rotate(180 12 12) translate(-4 -2)">
	<path fill="#303C42" d="M24,13.5c0-1.9141235-1.2330322-3.5992432-3.0517578-4.2366333C20.5864258,5.1661377,17.1603394,2,13,2
		C9.7246094,2,6.809021,4.0044556,5.6065674,7.008728C5.5709229,7.0079956,5.5357056,7,5.5,7C2.4677734,7,0,9.4672852,0,12.5
		c0,2.0957642,1.2290039,3.9979248,3.0981445,4.9129028C3.0402222,17.5997314,3,17.7943115,3,18v2c0,1.1030273,0.8974609,2,2,2h14
		c1.1025391,0,2-0.8969727,2-2v-2c0-0.0916138-0.0150757-0.1792603-0.0270386-0.2676392
		C22.7512207,17.1107788,24,15.4161377,24,13.5z"/>
	<path fill="var(--secondary, none)" d="M20,20c0,0.5512695-0.4482422,1-1,1H5c-0.5517578,0-1-0.4487305-1-1v-2c0-0.5512695,0.4482422-1,1-1h14
		c0.5517578,0,1,0.4487305,1,1V20z"/>
	<path fill="var(--secondary, none)" d="M5.3737793,16l2.9094238-3.4648438C8.5693359,12.1953125,8.9873047,12,9.4316406,12h5.1367188
		c0.4443359,0,0.8623047,0.1953125,1.1484375,0.5356445L18.6260986,16H5.3737793z"/>
	<path fill="var(--secondary, none)" d="M20.5953979,16.8067627c-0.0201416-0.0268555-0.0426025-0.0517578-0.0640869-0.0776367l0.0077515-0.0064697
		l-4.0566406-4.8300781C16.0068359,11.3251953,15.3085938,11,14.5683594,11H9.4316406
		c-0.7402344,0-1.4384766,0.3251953-1.9140625,0.8920898l-3.9111328,4.6572876C2.0372925,15.8151855,1,14.2388916,1,12.5
		C1,10.0185547,3.0185547,8,5.5,8c0.9609375,0,1.9199219,0.3203125,2.7011719,0.9013672
		C8.421875,9.0649414,8.7353516,9.0209961,8.9013672,8.7983398c0.1650391-0.2216797,0.1181641-0.534668-0.1025391-0.699707
		C8.1573486,7.6218262,7.4136353,7.303772,6.6400757,7.137207C7.7484741,4.6472778,10.223938,3,13,3
		c3.5348511,0,6.4666748,2.6104736,6.9239502,6.0424194C19.7832031,9.0283203,19.6356201,9,19.5,9C19.2236328,9,19,9.2236328,19,9.5
		s0.2236328,0.5,0.5,0.5c0.2080078,0,0.4238281,0.0219727,0.71875,0.074707C21.8300781,10.4111328,23,11.8515625,23,13.5
		C23,15.0075073,22.0048828,16.3379517,20.5953979,16.8067627z"/>
	<path fill="#303C42" d="M5.5,18C5.2236328,18,5,18.2236328,5,18.5v1C5,19.7763672,5.2236328,20,5.5,20S6,19.7763672,6,19.5v-1
		C6,18.2236328,5.7763672,18,5.5,18z"/>
	<path fill="#303C42" d="M7.5,18C7.2236328,18,7,18.2236328,7,18.5v1C7,19.7763672,7.2236328,20,7.5,20S8,19.7763672,8,19.5v-1
		C8,18.2236328,7.7763672,18,7.5,18z"/>
	<path fill="#303C42" d="M9.5,18C9.2236328,18,9,18.2236328,9,18.5v1C9,19.7763672,9.2236328,20,9.5,20s0.5-0.2236328,0.5-0.5v-1
		C10,18.2236328,9.7763672,18,9.5,18z"/>
	<circle fill="#303C42" cx="18" cy="19" r="1"/>
	<circle fill="#303C42" cx="15" cy="19" r="1"/>
	<linearGradient id="SVGID_1_" gradientUnits="userSpaceOnUse" x1="1.4517678" y1="8.1682081" x2="22.3888607" y2="17.9313335">
		<stop  offset="0" style="stop-color:#FFFFFF;stop-opacity:0.2"/>
		<stop  offset="1" style="stop-color:#FFFFFF;stop-opacity:0"/>
	</linearGradient>
	<path fill="url(#SVGID_1_)" d="M24,13.5c0-1.9141235-1.2330322-3.5992432-3.0517578-4.2366333
		C20.5864258,5.1661377,17.1603394,2,13,2C9.7246094,2,6.809021,4.0044556,5.6065674,7.008728
		C5.5709229,7.0079956,5.5357056,7,5.5,7C2.4677734,7,0,9.4672852,0,12.5c0,2.0957642,1.2290039,3.9979248,3.0981445,4.9129028
		C3.0402222,17.5997314,3,17.7943115,3,18v2c0,1.1030273,0.8974609,2,2,2h14c1.1025391,0,2-0.8969727,2-2v-2
		c0-0.0916138-0.0150757-0.1792603-0.0270386-0.2676392C22.7512207,17.1107788,24,15.4161377,24,13.5z"/>
</g>
</svg>
